#tb 0: 1/25
#media_type 0: video
#codec_id 0: rawvideo
#dimensions 0: 720x480
#sar 0: 0/1
0,          0,          0,        1,   518400, 0x47bd73fa
0,          1,          1,        1,   518400, 0xfe3ea7cc
0,          2,          2,        1,   518400, 0x9bc549ae
0,          3,          3,        1,   518400, 0x7bb7f0a1
0,          4,          4,        1,   518400, 0x328903d4
0,          5,          5,        1,   518400, 0x96ab366b
0,          6,          6,        1,   518400, 0xa923eed3
0,          7,          7,        1,   518400, 0x162b08f6
0,          8,          8,        1,   518400, 0xe711bd8b
0,          9,          9,        1,   518400, 0x55e2d4ed
0,         10,         10,        1,   518400, 0x7dd3107b
0,         11,         11,        1,   518400, 0x0ed20bcf
0,         12,         12,        1,   518400, 0x352f5743
0,         13,         13,        1,   518400, 0x0a3aeb5e
0,         14,         14,        1,   518400, 0xc458eda3
0,         15,         15,        1,   518400, 0xe8d5fec5
0,         16,         16,        1,   518400, 0x18fc6c37
0,         17,         17,        1,   518400, 0x448add76
0,         18,         18,        1,   518400, 0x8741ead7
0,         19,         19,        1,   518400, 0x7008a751
0,         20,         20,        1,   518400, 0x4ca0633d
0,         21,         21,        1,   518400, 0x021ab800
0,         22,         22,        1,   518400, 0xfb91ba57
0,         23,         23,        1,   518400, 0x90e71dd0
0,         24,         24,        1,   518400, 0xac859de5
0,         25,         25,        1,   518400, 0xce9790bd
0,         26,         26,        1,   518400, 0x010ade8b
0,         27,         27,        1,   518400, 0xd0b3a399
0,         28,         28,        1,   518400, 0x6cafcff3
0,         29,         29,        1,   518400, 0xc32284c0
0,         30,         30,        1,   518400, 0x1af8f73e
0,         31,         31,        1,   518400, 0x3babd71e
0,         32,         32,        1,   518400, 0xd77cb86b
